<?xml version="1.0" standalone="no"?><!DOCTYPE svg PUBLIC "-//W3C//DTD SVG 1.1//EN" "http://www.w3.org/Graphics/SVG/1.1/DTD/svg11.dtd"><svg t="1685686158901" class="icon" viewBox="0 0 1024 1024" version="1.1" xmlns="http://www.w3.org/2000/svg" p-id="7716" xmlns:xlink="http://www.w3.org/1999/xlink" width="200" height="200"><path d="M544 524.144V352h-80v172.16a72 72 0 1 0 80-0.016z m242.048-211.952l71.504-86.752-61.76-50.88-70.8 85.92A389.472 389.472 0 0 0 544 194.016V128h80V48H384v80h80v66.016C266.576 214.096 112 381.328 112 584 112 800.16 287.84 976 504 976a389.456 389.456 0 0 0 277.184-114.816C855.232 787.136 896.016 688.704 896 584c0-105.472-41.952-201.28-109.952-271.808z m-59.216 494.64A313.12 313.12 0 0 1 504 899.12c-173.76 0-315.12-141.376-315.12-315.12 0-173.76 141.344-315.104 315.12-315.104 173.76 0 315.12 141.36 315.12 315.104 0 84.16-32.752 163.312-92.288 222.832z" fill="#515151" p-id="7717"></path></svg>